<?xml version="1.0" encoding="UTF-8" standalone="no"?>
<svg width="204px" height="22px" viewBox="0 0 204 22" version="1.1" xmlns="http://www.w3.org/2000/svg" xmlns:xlink="http://www.w3.org/1999/xlink" xmlns:sketch="http://www.bohemiancoding.com/sketch/ns">
    <!-- Generator: Sketch 3.3.2 (12043) - http://www.bohemiancoding.com/sketch -->
    <title>logo</title>
    <desc>Created with Sketch.</desc>
    <defs></defs>
    <g id="Output" stroke="none" stroke-width="1" fill="none" fill-rule="evenodd" sketch:type="MSPage">
        <g id="logo" sketch:type="MSArtboardGroup" fill="#E14536">
            <path d="M46.0856642,10.2002185 C45.493605,12.423401 44.6154562,15.3384294 44.3878783,16.489218 C44.3878783,17.5273181 45.5814461,18.0673498 47.5560423,18.0673498 C49.5306386,18.0673498 50.6737624,17.5273181 50.6737624,16.5089263 C50.4481129,15.3722569 49.5613568,12.4375756 48.9672392,10.2044654 C50.0701983,9.67036969 50.8308203,8.54033634 50.8308203,7.2326502 C50.8308203,5.41011053 49.35336,3.9326502 47.5308203,3.9326502 C45.7082807,3.9326502 44.2308203,5.41011053 44.2308203,7.2326502 C44.2308203,8.53688049 44.9874274,9.66439572 46.0856642,10.2002185 L46.0856642,10.2002185 Z M47.5308203,22 C53.6059526,22 58.5308203,17.0751322 58.5308203,11 C58.5308203,4.92486775 53.6059526,0 47.5308203,0 C41.4556881,0 36.5308203,4.92486775 36.5308203,11 C36.5308203,17.0751322 41.4556881,22 47.5308203,22 Z M4.97590361,3.97590361 L5.10843373,3.97590361 C5.60910558,2.73894964 6.34537667,1.76707181 7.31726908,1.06024096 C8.28916149,0.35341012 9.43774438,0 10.7630522,0 C11.3520779,0 11.9190066,0.0883525301 12.4638554,0.265060241 C13.0087042,0.441767952 13.5314567,0.69210012 14.0321285,1.01606426 L12.2208835,4.63855422 C11.8674681,4.31459008 11.4919699,4.09370876 11.0943775,3.97590361 C10.6967852,3.85809847 10.2623852,3.79919679 9.79116466,3.79919679 C8.73091839,3.79919679 7.87684394,4.02744082 7.22891566,4.48393574 C6.58098739,4.94043066 6.09504847,5.52208482 5.77108434,6.22891566 C5.4471202,6.93574651 5.23360159,7.72355657 5.13052209,8.59236948 C5.02744259,9.46118239 4.97590361,10.3078941 4.97590361,11.1325301 L4.97590361,21.2931727 L1,21.2931727 L1,0.618473896 L4.97590361,0.618473896 L4.97590361,3.97590361 Z M23.6697189,3.79919679 C22.6978265,3.79919679 21.7774876,3.99062727 20.9086747,4.37349398 C20.0398618,4.75636068 19.2888653,5.27175044 18.6556627,5.91967871 C18.02246,6.56760699 17.5217957,7.33332892 17.1536546,8.21686747 C16.7855136,9.10040602 16.6014458,10.0281076 16.6014458,11 C16.6014458,11.9718924 16.7855136,12.8922313 17.1536546,13.7610442 C17.5217957,14.6298571 18.02246,15.395579 18.6556627,16.0582329 C19.2888653,16.7208868 20.0398618,17.2436393 20.9086747,17.626506 C21.7774876,18.0093727 22.6978265,18.2008032 23.6697189,18.2008032 C24.6416113,18.2008032 25.5619501,18.0093727 26.4307631,17.626506 C27.299576,17.2436393 28.0505725,16.7208868 28.6837751,16.0582329 C29.3169777,15.395579 29.8176421,14.6298571 30.1857831,13.7610442 C30.5539242,12.8922313 30.737992,11.9718924 30.737992,11 C30.737992,10.0281076 30.5539242,9.10040602 30.1857831,8.21686747 C29.8176421,7.33332892 29.3169777,6.56760699 28.6837751,5.91967871 C28.0505725,5.27175044 27.299576,4.75636068 26.4307631,4.37349398 C25.5619501,3.99062727 24.6416113,3.79919679 23.6697189,3.79919679 L23.6697189,3.79919679 Z M23.6697189,0 C25.2011857,0 26.644277,0.279783012 27.9990361,0.83935743 C29.3537953,1.39893185 30.5244663,2.17201649 31.5110843,3.15863454 C32.4977024,4.14525259 33.2781497,5.3085609 33.8524498,6.64859438 C34.4267499,7.98862785 34.7138956,9.43908189 34.7138956,11 C34.7138956,12.5609181 34.4267499,14.0113721 33.8524498,15.3514056 C33.2781497,16.6914391 32.4977024,17.8547474 31.5110843,18.8413655 C30.5244663,19.8279835 29.3537953,20.6010682 27.9990361,21.1606426 C26.644277,21.720217 25.2011857,22 23.6697189,22 C22.1088008,22 20.6583467,21.720217 19.3183133,21.1606426 C17.9782798,20.6010682 16.8149715,19.8279835 15.8283534,18.8413655 C14.8417354,17.8547474 14.061288,16.6914391 13.486988,15.3514056 C12.9126879,14.0113721 12.6255422,12.5609181 12.6255422,11 C12.6255422,9.43908189 12.9126879,7.98862785 13.486988,6.64859438 C14.061288,5.3085609 14.8417354,4.14525259 15.8283534,3.15863454 C16.8149715,2.17201649 17.9782798,1.39893185 19.3183133,0.83935743 C20.6583467,0.279783012 22.1088008,0 23.6697189,0 L23.6697189,0 Z M64.4138956,3.2248996 L64.502249,3.2248996 C65.0912747,2.31190976 65.871722,1.54618783 66.8436145,0.927710843 C67.8155069,0.309233855 68.8610118,0 69.9801606,0 C71.3349198,0 72.4982281,0.323959277 73.4701205,0.97188755 C74.4420129,1.61981582 75.2666365,2.51806655 75.9440161,3.66666667 C76.5919443,2.54751783 77.4828323,1.65662982 78.6167068,0.993975904 C79.7505813,0.331321988 80.980154,0 82.3054618,0 C83.660221,0 84.779353,0.242969458 85.6628916,0.728915663 C86.5464301,1.21486187 87.2458877,1.87014313 87.7612851,2.69477912 C88.2766826,3.5194151 88.6374555,4.4692048 88.8436145,5.54417671 C89.0497735,6.61914861 89.1528514,7.74564337 89.1528514,8.92369478 L89.1528514,21.2931727 L85.1769478,21.2931727 L85.1769478,9.58634538 C85.1769478,8.93841711 85.1401342,8.253685 85.066506,7.53212851 C84.9928778,6.81057203 84.8235355,6.15529076 84.5584739,5.56626506 C84.2934123,4.97723936 83.9105514,4.49130044 83.4098795,4.10843373 C82.9092077,3.72556703 82.2171129,3.53413655 81.3335743,3.53413655 C80.273328,3.53413655 79.4413417,3.78446871 78.8375904,4.28514056 C78.233839,4.78581241 77.7773509,5.41164283 77.4681124,6.1626506 C77.158874,6.91365837 76.9674435,7.73091928 76.8938153,8.61445783 C76.820187,9.49799639 76.7833735,10.3373454 76.7833735,11.1325301 L76.7833735,21.2931727 L72.8074699,21.2931727 L72.8074699,10.3373494 C72.8074699,9.65996984 72.778019,8.92369876 72.7191165,8.12851406 C72.6602139,7.33332936 72.5129597,6.59705827 72.2773494,5.91967871 C72.0417391,5.24229916 71.6662409,4.67537042 71.1508434,4.2188755 C70.6354459,3.76238058 69.9212629,3.53413655 69.0082731,3.53413655 C67.9480268,3.53413655 67.1086778,3.777106 66.4902008,4.26305221 C65.8717238,4.74899841 65.407873,5.36746612 65.0986345,6.1184739 C64.789396,6.86948167 64.5979656,7.69410528 64.5243373,8.59236948 C64.4507091,9.49063367 64.4138956,10.3373454 64.4138956,11.1325301 L64.4138956,21.2931727 L60.437992,21.2931727 L60.437992,0.618473896 L64.4138956,0.618473896 L64.4138956,3.2248996 Z M102.322811,3.79919679 C101.350919,3.79919679 100.43058,3.99062727 99.5617671,4.37349398 C98.6929542,4.75636068 97.9419577,5.27175044 97.308755,5.91967871 C96.6755524,6.56760699 96.1748881,7.33332892 95.806747,8.21686747 C95.4386059,9.10040602 95.2545382,10.0281076 95.2545382,11 C95.2545382,11.9718924 95.4386059,12.8922313 95.806747,13.7610442 C96.1748881,14.6298571 96.6755524,15.395579 97.308755,16.0582329 C97.9419577,16.7208868 98.6929542,17.2436393 99.5617671,17.626506 C100.43058,18.0093727 101.350919,18.2008032 102.322811,18.2008032 C103.294704,18.2008032 104.215043,18.0093727 105.083855,17.626506 C105.952668,17.2436393 106.703665,16.7208868 107.336867,16.0582329 C107.97007,15.395579 108.470734,14.6298571 108.838876,13.7610442 C109.207017,12.8922313 109.391084,11.9718924 109.391084,11 C109.391084,10.0281076 109.207017,9.10040602 108.838876,8.21686747 C108.470734,7.33332892 107.97007,6.56760699 107.336867,5.91967871 C106.703665,5.27175044 105.952668,4.75636068 105.083855,4.37349398 C104.215043,3.99062727 103.294704,3.79919679 102.322811,3.79919679 L102.322811,3.79919679 Z M102.322811,0 C103.854278,0 105.297369,0.279783012 106.652129,0.83935743 C108.006888,1.39893185 109.177559,2.17201649 110.164177,3.15863454 C111.150795,4.14525259 111.931242,5.3085609 112.505542,6.64859438 C113.079842,7.98862785 113.366988,9.43908189 113.366988,11 C113.366988,12.5609181 113.079842,14.0113721 112.505542,15.3514056 C111.931242,16.6914391 111.150795,17.8547474 110.164177,18.8413655 C109.177559,19.8279835 108.006888,20.6010682 106.652129,21.1606426 C105.297369,21.720217 103.854278,22 102.322811,22 C100.761893,22 99.3114391,21.720217 97.9714056,21.1606426 C96.6313721,20.6010682 95.4680638,19.8279835 94.4814458,18.8413655 C93.4948277,17.8547474 92.7143804,16.6914391 92.1400803,15.3514056 C91.5657803,14.0113721 91.2786345,12.5609181 91.2786345,11 C91.2786345,9.43908189 91.5657803,7.98862785 92.1400803,6.64859438 C92.7143804,5.3085609 93.4948277,4.14525259 94.4814458,3.15863454 C95.4680638,2.17201649 96.6313721,1.39893185 97.9714056,0.83935743 C99.3114391,0.279783012 100.761893,0 102.322811,0 L102.322811,0 Z M119.690442,3.97590361 L119.822972,3.97590361 C120.323644,2.73894964 121.059915,1.76707181 122.031807,1.06024096 C123.0037,0.35341012 124.152283,0 125.47759,0 C126.066616,0 126.633545,0.0883525301 127.178394,0.265060241 C127.723242,0.441767952 128.245995,0.69210012 128.746667,1.01606426 L126.935422,4.63855422 C126.582006,4.31459008 126.206508,4.09370876 125.808916,3.97590361 C125.411323,3.85809847 124.976923,3.79919679 124.505703,3.79919679 C123.445457,3.79919679 122.591382,4.02744082 121.943454,4.48393574 C121.295526,4.94043066 120.809587,5.52208482 120.485622,6.22891566 C120.161658,6.93574651 119.94814,7.72355657 119.84506,8.59236948 C119.741981,9.46118239 119.690442,10.3078941 119.690442,11.1325301 L119.690442,21.2931727 L115.714538,21.2931727 L115.714538,0.618473896 L119.690442,0.618473896 L119.690442,3.97590361 Z M148.589076,21.2931727 L144.613173,21.2931727 L144.613173,18.0682731 L144.524819,18.0682731 C143.729635,19.2463245 142.735669,20.1961142 141.542892,20.9176707 C140.350115,21.6392272 139.002738,22 137.500723,22 C135.910353,22 134.504076,21.6981289 133.281847,21.0943775 C132.059619,20.4906262 131.02884,19.6733653 130.189478,18.6425703 C129.350116,17.6117753 128.70956,16.4190161 128.267791,15.064257 C127.826022,13.7094979 127.605141,12.2958574 127.605141,10.8232932 C127.605141,9.40963149 127.833385,8.04752998 128.28988,6.73694779 C128.746374,5.4263656 129.394293,4.27778271 130.233655,3.29116466 C131.073016,2.30454661 132.096433,1.50937384 133.303936,0.90562249 C134.511438,0.301871145 135.866177,0 137.368193,0 C138.89966,0 140.269124,0.368135542 141.476627,1.10441767 C142.684129,1.8406998 143.700183,2.82730305 144.524819,4.06425703 L144.613173,4.06425703 L144.613173,0.618473896 L148.589076,0.618473896 L148.589076,21.2931727 Z M138.119197,18.4658635 C139.208894,18.4658635 140.166047,18.2670703 140.990683,17.8694779 C141.815319,17.4718856 142.514776,16.927045 143.089076,16.2349398 C143.663376,15.5428346 144.097776,14.7476618 144.392289,13.8493976 C144.686802,12.9511334 144.834056,11.9866183 144.834056,10.9558233 C144.834056,9.9544796 144.686802,9.0046899 144.392289,8.1064257 C144.097776,7.20816151 143.663376,6.42035145 143.089076,5.74297189 C142.514776,5.06559233 141.807956,4.52811444 140.968594,4.13052209 C140.129233,3.73292974 139.179443,3.53413655 138.119197,3.53413655 C137.088402,3.53413655 136.168063,3.74029245 135.358153,4.15261044 C134.548242,4.56492843 133.86351,5.11713175 133.303936,5.80923695 C132.744361,6.50134215 132.317324,7.28915221 132.022811,8.17269076 C131.728298,9.05622932 131.581044,9.98393088 131.581044,10.9558233 C131.581044,11.9277157 131.728298,12.86278 132.022811,13.7610442 C132.317324,14.6593084 132.736999,15.4618439 133.281847,16.1686747 C133.826696,16.8755055 134.504066,17.4350716 135.313976,17.8473896 C136.123886,18.2597076 137.058951,18.4658635 138.119197,18.4658635 L138.119197,18.4658635 Z M155.621124,3.2248996 L155.709478,3.2248996 C156.298504,2.31190976 157.078951,1.54618783 158.050843,0.927710843 C159.022736,0.309233855 160.068241,0 161.18739,0 C162.542149,0 163.705457,0.323959277 164.677349,0.97188755 C165.649242,1.61981582 166.473865,2.51806655 167.151245,3.66666667 C167.799173,2.54751783 168.690061,1.65662982 169.823936,0.993975904 C170.95781,0.331321988 172.187383,0 173.512691,0 C174.86745,0 175.986582,0.242969458 176.87012,0.728915663 C177.753659,1.21486187 178.453117,1.87014313 178.968514,2.69477912 C179.483912,3.5194151 179.844684,4.4692048 180.050843,5.54417671 C180.257002,6.61914861 180.36008,7.74564337 180.36008,8.92369478 L180.36008,21.2931727 L176.384177,21.2931727 L176.384177,9.58634538 C176.384177,8.93841711 176.347363,8.253685 176.273735,7.53212851 C176.200107,6.81057203 176.030764,6.15529076 175.765703,5.56626506 C175.500641,4.97723936 175.11778,4.49130044 174.617108,4.10843373 C174.116437,3.72556703 173.424342,3.53413655 172.540803,3.53413655 C171.480557,3.53413655 170.648571,3.78446871 170.044819,4.28514056 C169.441068,4.78581241 168.98458,5.41164283 168.675341,6.1626506 C168.366103,6.91365837 168.174672,7.73091928 168.101044,8.61445783 C168.027416,9.49799639 167.990602,10.3373454 167.990602,11.1325301 L167.990602,21.2931727 L164.014699,21.2931727 L164.014699,10.3373494 C164.014699,9.65996984 163.985248,8.92369876 163.926345,8.12851406 C163.867443,7.33332936 163.720189,6.59705827 163.484578,5.91967871 C163.248968,5.24229916 162.87347,4.67537042 162.358072,4.2188755 C161.842675,3.76238058 161.128492,3.53413655 160.215502,3.53413655 C159.155256,3.53413655 158.315907,3.777106 157.69743,4.26305221 C157.078953,4.74899841 156.615102,5.36746612 156.305863,6.1184739 C155.996625,6.86948167 155.805194,7.69410528 155.731566,8.59236948 C155.657938,9.49063367 155.621124,10.3373454 155.621124,11.1325301 L155.621124,21.2931727 L151.645221,21.2931727 L151.645221,0.618473896 L155.621124,0.618473896 L155.621124,3.2248996 Z M203.514859,21.2931727 L199.538956,21.2931727 L199.538956,18.0682731 L199.450602,18.0682731 C198.655418,19.2463245 197.661452,20.1961142 196.468675,20.9176707 C195.275898,21.6392272 193.928522,22 192.426506,22 C190.836137,22 189.429859,21.6981289 188.207631,21.0943775 C186.985402,20.4906262 185.954623,19.6733653 185.115261,18.6425703 C184.275899,17.6117753 183.635344,16.4190161 183.193574,15.064257 C182.751805,13.7094979 182.530924,12.2958574 182.530924,10.8232932 C182.530924,9.40963149 182.759168,8.04752998 183.215663,6.73694779 C183.672158,5.4263656 184.320076,4.27778271 185.159438,3.29116466 C185.998799,2.30454661 187.022216,1.50937384 188.229719,0.90562249 C189.437222,0.301871145 190.79196,0 192.293976,0 C193.825443,0 195.194907,0.368135542 196.40241,1.10441767 C197.609912,1.8406998 198.625966,2.82730305 199.450602,4.06425703 L199.538956,4.06425703 L199.538956,0.618473896 L203.514859,0.618473896 L203.514859,21.2931727 Z M193.04498,18.4658635 C194.134677,18.4658635 195.09183,18.2670703 195.916466,17.8694779 C196.741102,17.4718856 197.440559,16.927045 198.014859,16.2349398 C198.589159,15.5428346 199.023559,14.7476618 199.318072,13.8493976 C199.612585,12.9511334 199.759839,11.9866183 199.759839,10.9558233 C199.759839,9.9544796 199.612585,9.0046899 199.318072,8.1064257 C199.023559,7.20816151 198.589159,6.42035145 198.014859,5.74297189 C197.440559,5.06559233 196.733739,4.52811444 195.894378,4.13052209 C195.055016,3.73292974 194.105226,3.53413655 193.04498,3.53413655 C192.014185,3.53413655 191.093846,3.74029245 190.283936,4.15261044 C189.474025,4.56492843 188.789293,5.11713175 188.229719,5.80923695 C187.670144,6.50134215 187.243107,7.28915221 186.948594,8.17269076 C186.654082,9.05622932 186.506827,9.98393088 186.506827,10.9558233 C186.506827,11.9277157 186.654082,12.86278 186.948594,13.7610442 C187.243107,14.6593084 187.662782,15.4618439 188.207631,16.1686747 C188.752479,16.8755055 189.429849,17.4350716 190.239759,17.8473896 C191.049669,18.2597076 191.984734,18.4658635 193.04498,18.4658635 L193.04498,18.4658635 Z" id="Oval-1" sketch:type="MSShapeGroup"></path>
        </g>
    </g>
</svg>